<mxfile host="Electron" modified="2023-11-03T11:23:26.806Z" agent="Mozilla/5.0 (Windows NT 10.0; Win64; x64) AppleWebKit/537.36 (KHTML, like Gecko) draw.io/21.6.8 Chrome/114.0.5735.289 Electron/25.5.0 Safari/537.36" etag="1wR25K3deiExxa2g9g5J" version="21.6.8" type="device">
  <diagram name="Page-1" id="ndsCeQpyDv0kQ0xqp1dF">
    <mxGraphModel dx="1418" dy="820" grid="1" gridSize="10" guides="1" tooltips="1" connect="1" arrows="1" fold="1" page="1" pageScale="1" pageWidth="850" pageHeight="1100" math="0" shadow="0">
      <root>
        <mxCell id="0" />
        <mxCell id="1" parent="0" />
        <mxCell id="YYeqKD8tcaTTm6xERFdN-1" value="" style="shape=mxgraph.cisco.routers.router;sketch=0;html=1;pointerEvents=1;dashed=0;fillColor=#036897;strokeColor=#ffffff;strokeWidth=2;verticalLabelPosition=bottom;verticalAlign=top;align=center;outlineConnect=0;" vertex="1" parent="1">
          <mxGeometry x="570" y="380" width="78" height="53" as="geometry" />
        </mxCell>
        <mxCell id="YYeqKD8tcaTTm6xERFdN-2" value="" style="shape=mxgraph.cisco.routers.router;sketch=0;html=1;pointerEvents=1;dashed=0;fillColor=#036897;strokeColor=#ffffff;strokeWidth=2;verticalLabelPosition=bottom;verticalAlign=top;align=center;outlineConnect=0;" vertex="1" parent="1">
          <mxGeometry x="200" y="380" width="78" height="53" as="geometry" />
        </mxCell>
        <mxCell id="YYeqKD8tcaTTm6xERFdN-3" value="" style="endArrow=none;html=1;rounded=0;" edge="1" parent="1" source="YYeqKD8tcaTTm6xERFdN-2" target="YYeqKD8tcaTTm6xERFdN-1">
          <mxGeometry width="50" height="50" relative="1" as="geometry">
            <mxPoint x="400" y="450" as="sourcePoint" />
            <mxPoint x="450" y="400" as="targetPoint" />
          </mxGeometry>
        </mxCell>
        <mxCell id="YYeqKD8tcaTTm6xERFdN-4" value="E0/0" style="text;html=1;align=center;verticalAlign=middle;resizable=0;points=[];autosize=1;strokeColor=none;fillColor=none;" vertex="1" parent="1">
          <mxGeometry x="270" y="380" width="50" height="30" as="geometry" />
        </mxCell>
        <mxCell id="YYeqKD8tcaTTm6xERFdN-5" value="E0/0" style="text;html=1;align=center;verticalAlign=middle;resizable=0;points=[];autosize=1;strokeColor=none;fillColor=none;" vertex="1" parent="1">
          <mxGeometry x="530" y="380" width="50" height="30" as="geometry" />
        </mxCell>
        <mxCell id="YYeqKD8tcaTTm6xERFdN-6" value="123.0.1.0/24" style="text;html=1;align=center;verticalAlign=middle;resizable=0;points=[];autosize=1;strokeColor=none;fillColor=none;" vertex="1" parent="1">
          <mxGeometry x="380" y="370" width="90" height="30" as="geometry" />
        </mxCell>
        <mxCell id="YYeqKD8tcaTTm6xERFdN-7" value="&lt;font style=&quot;font-size: 18px;&quot;&gt;R1&lt;/font&gt;" style="text;html=1;align=center;verticalAlign=middle;resizable=0;points=[];autosize=1;strokeColor=none;fillColor=none;" vertex="1" parent="1">
          <mxGeometry x="214" y="433" width="50" height="40" as="geometry" />
        </mxCell>
        <mxCell id="YYeqKD8tcaTTm6xERFdN-8" value="&lt;font style=&quot;font-size: 18px;&quot;&gt;R2&lt;/font&gt;" style="text;html=1;align=center;verticalAlign=middle;resizable=0;points=[];autosize=1;strokeColor=none;fillColor=none;" vertex="1" parent="1">
          <mxGeometry x="584" y="433" width="50" height="40" as="geometry" />
        </mxCell>
        <mxCell id="YYeqKD8tcaTTm6xERFdN-9" value="Lo: 192.168.2.1/24" style="text;html=1;align=center;verticalAlign=middle;resizable=0;points=[];autosize=1;strokeColor=none;fillColor=none;" vertex="1" parent="1">
          <mxGeometry x="645" y="390" width="130" height="30" as="geometry" />
        </mxCell>
        <mxCell id="YYeqKD8tcaTTm6xERFdN-10" value="Lo: 192.168.1.1/24" style="text;html=1;align=center;verticalAlign=middle;resizable=0;points=[];autosize=1;strokeColor=none;fillColor=none;" vertex="1" parent="1">
          <mxGeometry x="70" y="391.5" width="130" height="30" as="geometry" />
        </mxCell>
      </root>
    </mxGraphModel>
  </diagram>
</mxfile>
